<svg version="1.1" id="Layer_1" xmlns="http://www.w3.org/2000/svg" xmlns:xlink="http://www.w3.org/1999/xlink" x="0px" y="0px"
	 width="100%" viewBox="0 0 176 139" enable-background="new 0 0 176 139" xml:space="preserve">
<path fill="#F5F5F6" opacity="1.000000" stroke="none" 
	d="
M76.000000,140.000000 
	C51.018517,140.000000 26.037035,140.000000 1.027776,140.000000 
	C1.027776,93.719521 1.027776,47.439014 1.027776,1.079256 
	C59.570278,1.079256 118.140701,1.079256 176.855560,1.079256 
	C176.855560,47.333035 176.855560,93.666451 176.855560,140.000000 
	C156.573914,140.000000 136.255615,140.000000 115.468201,139.644684 
	C115.023361,138.584045 115.047638,137.878723 115.513222,137.140701 
	C119.306221,136.734283 122.657906,136.360550 126.430138,135.978668 
	C133.900452,135.313675 140.950226,134.656845 148.188828,134.234512 
	C150.918076,133.318787 153.458511,132.168564 156.343567,130.975052 
	C164.694077,125.769180 167.331284,118.082657 167.289719,108.700729 
	C167.713562,90.058388 167.871277,71.715363 167.894852,53.372158 
	C167.895874,52.582470 166.660202,51.791199 165.989807,50.607124 
	C164.274979,35.814697 152.723755,29.244389 140.459625,29.877748 
	C129.329468,30.452545 118.145699,29.947876 106.986824,30.052670 
	C105.285667,30.068645 103.591286,30.806986 101.561844,31.096718 
	C98.685509,29.571445 96.141098,28.160671 93.462822,26.675669 
	C92.241394,28.497004 91.253487,29.970135 90.000549,31.097687 
	C85.256989,31.167986 80.778458,31.583858 76.109375,31.694052 
	C70.292976,19.951311 62.084629,11.555198 49.256008,8.449189 
	C36.243992,5.298780 23.554842,9.223125 17.248547,19.024229 
	C9.787165,30.620544 9.016158,43.936111 7.624444,57.509876 
	C11.172144,57.859558 14.079417,58.146122 17.322960,58.465828 
	C17.586065,56.618156 17.742945,55.164890 18.005671,53.731010 
	C19.292398,46.708424 20.096519,39.547333 22.021622,32.702503 
	C25.706142,19.601950 35.079845,14.823626 48.199421,18.605755 
	C54.540352,20.433725 59.738575,23.935736 63.118343,29.580996 
	C65.545692,33.635414 67.408127,38.041687 69.323204,42.379025 
	C69.769722,43.390331 69.407394,44.758774 69.417221,45.962894 
	C67.966011,45.906300 66.297768,46.295448 65.102409,45.713402 
	C60.701656,43.570560 56.457626,41.105858 51.980122,38.667179 
	C50.283646,41.833618 48.887592,44.439320 47.362503,47.285866 
	C50.518215,49.159424 53.347702,50.839302 56.129761,52.982330 
	C54.554752,63.100567 55.503254,72.590218 57.990200,82.380005 
	C57.994404,83.855431 57.997051,84.928017 58.002274,86.365570 
	C58.327496,88.135696 58.650135,89.540863 58.704300,91.225273 
	C59.060081,97.477081 59.435009,103.489464 60.380886,109.410645 
	C61.272266,114.990700 62.765083,120.474670 64.041351,126.326820 
	C65.065971,127.427315 66.042557,128.201904 66.887802,129.280121 
	C67.298912,133.891113 69.874161,136.210205 74.173447,137.271393 
	C74.890228,138.360931 75.445114,139.180466 76.000000,140.000000 
z"/>
<path fill="#D2D2D2" opacity="1.000000" stroke="none" 
	d="
M76.468658,140.000000 
	C75.445114,139.180466 74.890228,138.360931 74.606384,137.271240 
	C85.635063,138.929382 96.224884,137.891159 106.739769,135.405090 
	C101.569977,134.983673 96.406059,135.197556 91.266983,134.931641 
	C84.234283,134.567703 76.975960,134.826950 71.011597,129.574829 
	C71.021500,128.384659 71.034103,127.590965 71.358223,126.976929 
	C77.293854,130.799316 83.426064,132.155823 90.138161,132.059662 
	C102.450302,131.883224 114.768562,132.133743 127.024506,132.531693 
	C126.646362,133.900345 126.327980,134.943588 126.009598,135.986816 
	C122.657906,136.360550 119.306221,136.734283 115.161957,137.144409 
	C113.912918,138.120544 113.456459,139.060272 113.000000,140.000000 
	C111.285645,140.000000 109.571281,140.000000 107.392609,139.666153 
	C105.952187,139.554871 104.976097,139.777435 104.000000,140.000000 
	C94.979103,140.000000 85.958214,140.000000 76.468658,140.000000 
z"/>
<path fill="#EAEAEA" opacity="1.000000" stroke="none" 
	d="
M113.333328,140.000000 
	C113.456459,139.060272 113.912918,138.120544 114.720642,137.177094 
	C115.047638,137.878723 115.023361,138.584045 114.999542,139.644684 
	C114.555557,140.000000 114.111107,140.000000 113.333328,140.000000 
z"/>
<path fill="#EAEAEA" opacity="1.000000" stroke="none" 
	d="
M104.375000,140.000000 
	C104.976097,139.777435 105.952187,139.554871 106.964142,139.666153 
	C106.250000,140.000000 105.500000,140.000000 104.375000,140.000000 
z"/>
<path fill="#FFFFFF" opacity="1.000000" stroke="none" 
	d="
M101.893776,31.211216 
	C103.591286,30.806986 105.285667,30.068645 106.986824,30.052670 
	C118.145699,29.947876 129.329468,30.452545 140.459625,29.877748 
	C152.723755,29.244389 164.274979,35.814697 165.989624,51.075703 
	C165.996170,63.624115 165.992111,75.310410 165.623505,87.042747 
	C161.151230,90.493126 157.061981,91.452927 152.991577,86.582733 
	C152.560394,85.504288 152.140671,84.253357 151.743698,84.260529 
	C142.495087,84.427727 133.248947,84.731201 123.954254,84.622879 
	C122.419914,78.797920 122.928665,78.047867 128.375732,78.013580 
	C135.158188,77.970894 141.942398,78.074593 148.722931,77.952888 
	C150.432068,77.922211 152.130112,77.273804 153.833237,76.909264 
	C153.864532,76.197144 153.895828,75.485031 153.927124,74.772911 
	C151.805542,74.181381 149.711136,73.234695 147.556900,73.069839 
	C142.567520,72.688011 142.144028,72.146088 144.369629,67.156822 
	C146.020844,67.545036 147.413620,68.186417 148.573074,67.896065 
	C150.089645,67.516304 151.421783,66.400002 152.833252,65.600548 
	C151.489777,64.734726 150.230423,63.391060 148.779480,63.135574 
	C147.286270,62.872650 145.606216,63.670856 143.720123,63.775497 
	C142.951309,61.874989 142.678787,60.099960 141.916611,58.568634 
	C141.401291,57.533264 140.196640,56.840996 139.201721,55.570187 
	C138.256134,54.424290 137.409760,53.076591 136.562027,53.075733 
	C121.389709,53.060410 106.217216,53.208229 90.763855,53.139038 
	C94.286552,45.708443 98.090164,38.459827 101.893776,31.211216 
M152.585403,53.831944 
	C146.667633,52.136360 145.256546,52.588676 144.433533,57.432468 
	C147.280151,55.422359 151.114349,59.871479 152.585403,53.831944 
z"/>
<path fill="#323DFF" opacity="1.000000" stroke="none" 
	d="
M101.561844,31.096716 
	C98.090164,38.459827 94.286552,45.708443 90.772499,53.281696 
	C91.062057,53.606335 90.932480,53.861134 90.645401,53.902138 
	C89.980896,54.298344 89.603462,54.653553 89.029236,55.306175 
	C86.820732,59.187920 84.809021,62.772243 82.662666,66.596443 
	C76.258499,63.283802 70.137550,60.117664 63.853783,56.705494 
	C63.142262,56.266129 62.593552,56.072796 61.845379,55.608536 
	C59.823009,54.398132 58.000099,53.458652 56.177185,52.519176 
	C53.347702,50.839302 50.518215,49.159424 47.362503,47.285866 
	C48.887592,44.439320 50.283646,41.833618 51.980122,38.667179 
	C56.457626,41.105858 60.701656,43.570560 65.102409,45.713402 
	C66.297768,46.295448 67.966011,45.906300 69.417221,45.962894 
	C69.407394,44.758774 69.769722,43.390331 69.323204,42.379025 
	C67.408127,38.041687 65.545692,33.635414 63.118343,29.580996 
	C59.738575,23.935736 54.540352,20.433725 48.199421,18.605755 
	C35.079845,14.823626 25.706142,19.601950 22.021622,32.702503 
	C20.096519,39.547333 19.292398,46.708424 18.005671,53.731010 
	C17.742945,55.164890 17.586065,56.618156 17.322960,58.465828 
	C14.079417,58.146122 11.172144,57.859558 7.624444,57.509876 
	C9.016158,43.936111 9.787165,30.620544 17.248547,19.024229 
	C23.554842,9.223125 36.243992,5.298780 49.256008,8.449189 
	C62.084629,11.555198 70.292976,19.951311 76.185997,32.034279 
	C78.287422,37.109749 80.121658,41.539307 82.301712,46.803967 
	C85.272400,41.074089 87.768990,36.258675 90.265579,31.443264 
	C91.253487,29.970135 92.241394,28.497004 93.462822,26.675669 
	C96.141098,28.160671 98.685509,29.571445 101.561844,31.096716 
z"/>
<path fill="#ECECED" opacity="1.000000" stroke="none" 
	d="
M56.129761,52.982330 
	C58.000099,53.458652 59.823009,54.398132 61.830589,56.085381 
	C62.015255,69.677528 62.015255,82.521896 62.015255,95.366272 
	C61.578072,95.361130 61.140892,95.355980 60.703709,95.350838 
	C60.126732,93.882568 59.549755,92.414291 58.972778,90.946022 
	C58.650135,89.540863 58.327496,88.135696 58.258465,86.150238 
	C58.337601,84.372353 58.163120,83.174767 57.988644,81.977180 
	C55.503254,72.590218 54.554752,63.100567 56.129761,52.982330 
z"/>
<path fill="#E1E1E1" opacity="1.000000" stroke="none" 
	d="
M58.704300,91.225273 
	C59.549755,92.414291 60.126732,93.882568 60.703709,95.350838 
	C61.140892,95.355980 61.578072,95.361130 62.015255,95.366272 
	C62.015255,82.521896 62.015255,69.677528 62.030045,56.356308 
	C62.593552,56.072796 63.142262,56.266129 63.846184,57.177311 
	C64.002251,74.540817 63.885376,91.187965 64.094345,107.831009 
	C64.141220,111.563995 65.328278,115.282654 65.768753,119.156326 
	C65.712860,119.864891 65.878647,120.425049 66.032806,120.987923 
	C66.021187,120.990639 66.044548,120.961914 66.035065,121.330925 
	C65.813454,123.353455 68.309662,126.286682 63.993317,126.000916 
	C62.765083,120.474670 61.272266,114.990700 60.380886,109.410645 
	C59.435009,103.489464 59.060081,97.477081 58.704300,91.225273 
z"/>
<path fill="#EAEAEA" opacity="1.000000" stroke="none" 
	d="
M71.014282,129.971313 
	C76.975960,134.826950 84.234283,134.567703 91.266983,134.931641 
	C96.406059,135.197556 101.569977,134.983673 106.739769,135.405090 
	C96.224884,137.891159 85.635063,138.929382 74.444496,137.001221 
	C69.874161,136.210205 67.298912,133.891113 67.235977,129.289993 
	C68.815094,129.321259 69.914688,129.646286 71.014282,129.971313 
z"/>
<path fill="#F8F9FF" opacity="1.000000" stroke="none" 
	d="
M90.000542,31.097687 
	C87.768990,36.258675 85.272400,41.074089 82.301712,46.803967 
	C80.121658,41.539307 78.287422,37.109749 76.376556,32.339958 
	C80.778458,31.583858 85.256989,31.167986 90.000542,31.097687 
z"/>
<path fill="#EEEEEE" opacity="1.000000" stroke="none" 
	d="
M165.988037,86.996696 
	C165.992111,75.310410 165.996170,63.624115 166.000427,51.469246 
	C166.660202,51.791199 167.895874,52.582470 167.894852,53.372158 
	C167.871277,71.715363 167.713562,90.058388 167.049164,108.708336 
	C166.517654,109.015221 166.036469,109.029167 166.022949,108.557480 
	C166.002304,101.056099 165.995178,94.026398 165.988037,86.996696 
z"/>
<path fill="#BCBCBC" opacity="1.000000" stroke="none" 
	d="
M126.430138,135.978668 
	C126.327980,134.943588 126.646362,133.900345 127.483841,132.490479 
	C135.317459,132.100006 142.631958,132.076187 149.807220,132.296875 
	C149.111969,133.027588 148.555984,133.513794 148.000000,134.000000 
	C140.950226,134.656845 133.900452,135.313675 126.430138,135.978668 
z"/>
<path fill="#E2E2E2" opacity="1.000000" stroke="none" 
	d="
M166.036469,109.029167 
	C166.036469,109.029167 166.517654,109.015221 166.758209,109.007614 
	C167.331284,118.082657 164.694077,125.769180 156.344803,130.602432 
	C156.007797,129.528915 156.014160,128.784714 156.353516,127.975830 
	C162.599915,123.002022 166.220718,116.957680 166.036469,109.029167 
z"/>
<path fill="#D8D8D8" opacity="1.000000" stroke="none" 
	d="
M71.011597,129.574829 
	C69.914688,129.646286 68.815094,129.321259 67.367325,128.986359 
	C66.042557,128.201904 65.065971,127.427315 64.041351,126.326820 
	C68.309662,126.286682 65.813454,123.353455 66.332535,121.486519 
	C68.108566,123.114494 69.577637,124.955879 71.046700,126.797272 
	C71.034103,127.590965 71.021500,128.384659 71.011597,129.574829 
z"/>
<path fill="#EAEAEA" opacity="1.000000" stroke="none" 
	d="
M156.020508,128.040527 
	C156.014160,128.784714 156.007797,129.528915 156.000183,130.645721 
	C153.458511,132.168564 150.918076,133.318787 148.188828,134.234497 
	C148.555984,133.513794 149.111969,133.027588 150.040146,132.142014 
	C152.281738,130.508606 154.151123,129.274567 156.020508,128.040527 
z"/>
<path fill="#E1E1E1" opacity="1.000000" stroke="none" 
	d="
M57.990200,82.380005 
	C58.163120,83.174767 58.337601,84.372353 58.255886,85.785278 
	C57.997051,84.928017 57.994404,83.855431 57.990200,82.380005 
z"/>
<path fill="#FBFBFB" opacity="1.000000" stroke="none" 
	d="
M156.353531,127.975830 
	C154.151123,129.274567 152.281738,130.508606 150.179413,131.897507 
	C142.631958,132.076187 135.317459,132.100006 127.543610,132.165039 
	C114.768562,132.133743 102.450302,131.883224 90.138161,132.059662 
	C83.426064,132.155823 77.293854,130.799316 71.358223,126.976929 
	C69.577637,124.955879 68.108566,123.114494 66.342026,121.117508 
	C66.044548,120.961914 66.021187,120.990639 66.028221,120.658165 
	C66.020317,119.886429 66.005379,119.447174 65.990433,119.007912 
	C65.328278,115.282654 64.141220,111.563995 64.094345,107.831009 
	C63.885376,91.187965 64.002251,74.540817 64.008987,57.423340 
	C70.137550,60.117664 76.258499,63.283802 82.662666,66.596443 
	C84.809021,62.772243 86.820732,59.187920 89.290161,55.315746 
	C90.096573,55.028870 90.445274,55.029839 90.837173,55.490131 
	C91.002647,59.934292 91.124939,63.919125 90.969467,68.079956 
	C91.041794,72.761086 94.078026,71.267944 94.835472,69.328857 
	C97.734688,61.906754 103.755875,61.948940 110.089920,62.461327 
	C110.200241,74.886513 110.137085,86.852638 110.273880,98.816483 
	C110.313377,102.271095 109.587128,104.587639 105.639160,104.999985 
	C104.752945,105.092537 103.996811,106.430511 103.180801,107.195145 
	C104.155960,107.831833 105.115952,108.990700 106.108772,109.019554 
	C112.068565,109.192787 118.038483,109.194183 123.998108,109.018806 
	C124.968681,108.990242 125.904930,107.795265 126.857040,107.139404 
	C126.028961,106.391319 125.284073,105.140633 124.357559,104.987297 
	C121.304497,104.482002 119.654671,103.270164 119.702095,99.846802 
	C119.877014,87.222305 119.864265,74.595222 120.379280,61.951569 
	C126.517548,61.641056 132.248520,61.213665 135.218124,67.712494 
	C135.290039,67.869881 135.837280,67.810066 136.089874,67.921448 
	C136.016922,67.991356 136.144516,67.834747 136.143494,68.171753 
	C136.979965,69.136398 137.817444,69.764038 138.654938,70.391678 
	C138.665604,69.559967 138.676270,68.728249 138.903168,67.483856 
	C139.179718,63.379211 139.240021,59.687237 139.300308,55.995266 
	C140.196640,56.840996 141.401291,57.533264 141.916611,58.568634 
	C142.678787,60.099960 142.951309,61.874989 143.718170,64.149300 
	C144.005142,65.500076 144.006271,66.247818 144.007401,66.995552 
	C142.144028,72.146088 142.567520,72.688011 147.556900,73.069839 
	C149.711136,73.234695 151.805542,74.181381 153.927124,74.772911 
	C153.895828,75.485031 153.864532,76.197144 153.833237,76.909264 
	C152.130112,77.273804 150.432068,77.922211 148.722931,77.952888 
	C141.942398,78.074593 135.158188,77.970894 128.375732,78.013580 
	C122.928665,78.047867 122.419914,78.797920 124.012527,85.012939 
	C125.591721,86.527161 127.024704,87.784309 128.545166,87.900917 
	C132.486847,88.203217 136.472534,88.134476 140.430328,87.968147 
	C144.630951,87.791626 148.819702,87.332207 153.013626,86.996330 
	C157.061981,91.452927 161.151230,90.493126 165.623489,87.042747 
	C165.995178,94.026398 166.002304,101.056099 166.022949,108.557480 
	C166.220718,116.957680 162.599915,123.002022 156.353531,127.975830 
M142.437363,94.001831 
	C137.795670,94.007133 133.145844,93.865486 128.518066,94.121895 
	C127.372711,94.185356 126.298904,95.540497 125.192200,96.301865 
	C126.164597,97.191856 127.114876,98.823494 128.112930,98.853249 
	C135.400177,99.070541 142.699127,99.049232 149.988220,98.862526 
	C150.945038,98.838028 151.866821,97.446342 152.804825,96.687874 
	C151.828506,95.801216 150.962158,94.369606 149.852112,94.145561 
	C147.779770,93.727310 145.565857,94.010521 142.437363,94.001831 
M84.664619,94.001831 
	C83.835564,94.001938 82.902916,93.755196 82.197960,94.051025 
	C80.470436,94.775963 78.847954,95.751236 77.183212,96.625786 
	C78.933151,97.416603 80.653275,98.799438 82.438507,98.889320 
	C88.227219,99.180779 94.050537,99.193909 99.836563,98.876961 
	C101.537956,98.783752 103.159775,97.238014 104.818069,96.357979 
	C103.229103,95.572746 101.676521,94.213959 100.044319,94.110428 
	C95.255051,93.806656 90.434128,94.001984 84.664619,94.001831 
M97.362068,73.996033 
	C90.675278,73.996033 83.988487,73.996033 77.301697,73.996033 
	C77.147591,74.751724 76.993484,75.507416 76.839371,76.263100 
	C78.367226,76.840668 79.879265,77.861259 81.425758,77.916435 
	C87.074654,78.117973 92.742828,78.171036 98.387405,77.916985 
	C100.799240,77.808434 103.170860,76.806503 105.560753,76.210518 
	C103.145676,75.472359 100.730598,74.734192 97.362068,73.996033 
M84.657837,84.001518 
	C82.087875,84.659691 78.202858,82.294388 76.978065,87.997368 
	C85.650566,87.997368 93.879814,88.076012 102.104034,87.908188 
	C103.268669,87.884422 104.408806,86.660652 105.560287,85.992302 
	C104.402725,85.330528 103.264938,84.141403 102.084221,84.097122 
	C96.602898,83.891556 91.109688,84.003319 84.657837,84.001518 
M89.436615,108.999390 
	C91.763130,108.971367 94.104584,109.083076 96.407768,108.836830 
	C97.176796,108.754601 97.847939,107.756920 98.563820,107.177719 
	C97.966255,106.494751 97.381546,105.231651 96.769157,105.218079 
	C90.272102,105.074127 83.770645,105.128815 77.270401,105.128815 
	C77.221214,105.743767 77.172020,106.358719 77.122833,106.973671 
	C80.072235,110.930939 84.724190,108.186890 89.436615,108.999390 
M134.147217,108.980148 
	C139.095261,108.984985 144.050323,109.137222 148.986877,108.901474 
	C150.399246,108.834030 151.757980,107.643013 153.141296,106.967201 
	C152.937775,106.343445 152.734253,105.719681 152.530731,105.095924 
	C146.169403,105.095924 139.779449,104.741768 133.459412,105.252625 
	C130.514709,105.490654 130.475677,107.514641 134.147217,108.980148 
z"/>
<path fill="#353535" opacity="1.000000" stroke="none" 
	d="
M139.201721,55.570187 
	C139.240021,59.687237 139.179718,63.379211 138.590881,67.412689 
	C137.423080,67.781036 136.783798,67.807892 136.144516,67.834747 
	C136.144516,67.834747 136.016922,67.991356 136.030060,67.555679 
	C133.296387,58.612755 130.672852,57.046505 119.922096,57.759277 
	C119.922096,59.131950 119.922096,60.550529 119.922089,61.969109 
	C119.864265,74.595222 119.877014,87.222305 119.702095,99.846802 
	C119.654671,103.270164 121.304497,104.482002 124.357559,104.987297 
	C125.284073,105.140633 126.028961,106.391319 126.857040,107.139404 
	C125.904930,107.795265 124.968681,108.990242 123.998108,109.018806 
	C118.038483,109.194183 112.068565,109.192787 106.108772,109.019554 
	C105.115952,108.990700 104.155960,107.831833 103.180801,107.195145 
	C103.996811,106.430511 104.752945,105.092537 105.639160,104.999985 
	C109.587128,104.587639 110.313377,102.271095 110.273880,98.816483 
	C110.137085,86.852638 110.200241,74.886513 110.202118,62.071915 
	C110.066757,59.988018 109.916588,58.753452 109.774010,57.581219 
	C102.455315,57.604378 95.742355,57.795685 94.058067,66.658615 
	C93.949272,67.231110 92.221764,67.495987 91.247238,67.903961 
	C91.124939,63.919125 91.002647,59.934292 90.923431,55.203827 
	C90.955162,54.259174 90.943825,54.060154 90.932480,53.861134 
	C90.932480,53.861134 91.062057,53.606335 91.053413,53.463676 
	C106.217216,53.208229 121.389709,53.060410 136.562027,53.075733 
	C137.409760,53.076591 138.256134,54.424290 139.201721,55.570187 
z"/>
<path fill="#F2F2F2" opacity="1.000000" stroke="none" 
	d="
M152.991577,86.582733 
	C148.819702,87.332207 144.630951,87.791626 140.430328,87.968147 
	C136.472534,88.134476 132.486847,88.203217 128.545166,87.900917 
	C127.024704,87.784309 125.591721,86.527161 124.060616,85.399582 
	C133.248947,84.731201 142.495087,84.427727 151.743698,84.260529 
	C152.140671,84.253357 152.560394,85.504288 152.991577,86.582733 
z"/>
<path fill="#F2F2F2" opacity="1.000000" stroke="none" 
	d="
M144.369629,67.156822 
	C144.006271,66.247818 144.005142,65.500076 144.005966,64.378540 
	C145.606216,63.670856 147.286270,62.872650 148.779480,63.135574 
	C150.230423,63.391060 151.489777,64.734726 152.833252,65.600548 
	C151.421783,66.400002 150.089645,67.516304 148.573074,67.896065 
	C147.413620,68.186417 146.020844,67.545036 144.369629,67.156822 
z"/>
<path fill="#F2F2F2" opacity="1.000000" stroke="none" 
	d="
M152.722687,54.222622 
	C151.114349,59.871479 147.280151,55.422359 144.433533,57.432468 
	C145.256546,52.588676 146.667633,52.136360 152.722687,54.222622 
z"/>
<path fill="#E2E2E2" opacity="1.000000" stroke="none" 
	d="
M90.645401,53.902138 
	C90.943825,54.060154 90.955162,54.259174 90.880249,54.744499 
	C90.445274,55.029839 90.096573,55.028870 89.486946,55.018326 
	C89.603462,54.653553 89.980896,54.298344 90.645401,53.902138 
z"/>
<path fill="#D8D8D8" opacity="1.000000" stroke="none" 
	d="
M65.768753,119.156326 
	C66.005379,119.447174 66.020317,119.886429 66.039841,120.655449 
	C65.878647,120.425049 65.712860,119.864891 65.768753,119.156326 
z"/>
<path fill="#F1F1F1" opacity="1.000000" stroke="none" 
	d="
M142.924103,94.001831 
	C145.565857,94.010521 147.779770,93.727310 149.852112,94.145561 
	C150.962158,94.369606 151.828506,95.801216 152.804825,96.687881 
	C151.866821,97.446342 150.945038,98.838028 149.988220,98.862526 
	C142.699127,99.049232 135.400177,99.070541 128.112930,98.853249 
	C127.114876,98.823494 126.164597,97.191856 125.192200,96.301865 
	C126.298904,95.540497 127.372711,94.185356 128.518066,94.121895 
	C133.145844,93.865486 137.795670,94.007133 142.924103,94.001831 
z"/>
<path fill="#F1F1F1" opacity="1.000000" stroke="none" 
	d="
M85.145111,94.001831 
	C90.434128,94.001984 95.255051,93.806656 100.044319,94.110428 
	C101.676521,94.213959 103.229103,95.572746 104.818069,96.357979 
	C103.159775,97.238014 101.537956,98.783752 99.836563,98.876961 
	C94.050537,99.193909 88.227219,99.180779 82.438507,98.889320 
	C80.653275,98.799438 78.933151,97.416603 77.183212,96.625786 
	C78.847954,95.751236 80.470436,94.775963 82.197960,94.051025 
	C82.902916,93.755196 83.835564,94.001938 85.145111,94.001831 
z"/>
<path fill="#F2F2F2" opacity="1.000000" stroke="none" 
	d="
M97.838791,73.996033 
	C100.730598,74.734192 103.145676,75.472359 105.560753,76.210518 
	C103.170860,76.806503 100.799240,77.808434 98.387405,77.916985 
	C92.742828,78.171036 87.074654,78.117973 81.425758,77.916435 
	C79.879265,77.861259 78.367226,76.840668 76.839371,76.263100 
	C76.993484,75.507416 77.147591,74.751724 77.301697,73.996033 
	C83.988487,73.996033 90.675278,73.996033 97.838791,73.996033 
z"/>
<path fill="#F2F2F2" opacity="1.000000" stroke="none" 
	d="
M85.139282,84.001503 
	C91.109688,84.003319 96.602898,83.891556 102.084221,84.097122 
	C103.264938,84.141403 104.402725,85.330528 105.560287,85.992302 
	C104.408806,86.660652 103.268669,87.884422 102.104034,87.908188 
	C93.879814,88.076012 85.650566,87.997368 76.978065,87.997368 
	C78.202858,82.294388 82.087875,84.659691 85.139282,84.001503 
z"/>
<path fill="#E2E2E2" opacity="1.000000" stroke="none" 
	d="
M90.969467,68.079956 
	C92.221764,67.495987 93.949272,67.231110 94.058067,66.658615 
	C95.742355,57.795685 102.455315,57.604378 109.774010,57.581219 
	C109.916588,58.753452 110.066757,59.988018 110.104721,61.611996 
	C103.755875,61.948940 97.734688,61.906754 94.835472,69.328857 
	C94.078026,71.267944 91.041794,72.761086 90.969467,68.079956 
z"/>
<path fill="#F1F1F1" opacity="1.000000" stroke="none" 
	d="
M88.954590,108.999390 
	C84.724190,108.186890 80.072235,110.930939 77.122833,106.973671 
	C77.172020,106.358719 77.221214,105.743767 77.270401,105.128815 
	C83.770645,105.128815 90.272102,105.074127 96.769157,105.218079 
	C97.381546,105.231651 97.966255,106.494751 98.563820,107.177719 
	C97.847939,107.756920 97.176796,108.754601 96.407768,108.836830 
	C94.104584,109.083076 91.763130,108.971367 88.954590,108.999390 
z"/>
<path fill="#F1F1F1" opacity="1.000000" stroke="none" 
	d="
M133.722229,108.936844 
	C130.475677,107.514641 130.514709,105.490654 133.459412,105.252625 
	C139.779449,104.741768 146.169403,105.095924 152.530731,105.095924 
	C152.734253,105.719681 152.937775,106.343445 153.141296,106.967201 
	C151.757980,107.643013 150.399246,108.834030 148.986877,108.901474 
	C144.050323,109.137222 139.095261,108.984985 133.722229,108.936844 
z"/>
<path fill="#CDCDCD" opacity="1.000000" stroke="none" 
	d="
M120.379288,61.951569 
	C119.922096,60.550529 119.922096,59.131950 119.922096,57.759277 
	C130.672852,57.046505 133.296387,58.612755 136.103012,67.485771 
	C135.837280,67.810066 135.290039,67.869881 135.218124,67.712494 
	C132.248520,61.213665 126.517548,61.641056 120.379288,61.951569 
z"/>
<path fill="#CDCDCD" opacity="1.000000" stroke="none" 
	d="
M136.143494,68.171753 
	C136.783798,67.807892 137.423080,67.781036 138.374649,67.825363 
	C138.676270,68.728249 138.665604,69.559967 138.654938,70.391678 
	C137.817444,69.764038 136.979965,69.136398 136.143494,68.171753 
z"/>
</svg>